<?xml version="1.0" encoding="UTF-8" standalone="no"?>
<svg
   width="300"
   height="205.90947"
   viewBox="0 0 300 205.90947"
   version="1.1"
   xml:space="preserve"
   style="clip-rule:evenodd;fill-rule:evenodd;stroke-linejoin:round;stroke-miterlimit:1.41421"
   id="svg12"
   xmlns="http://www.w3.org/2000/svg"
   xmlns:svg="http://www.w3.org/2000/svg"
   xmlns:serif="http://www.serif.com/"><defs
   id="defs12" />
    <g
   id="Layer-1"
   serif:id="Layer 1"
   transform="translate(-35.011168,-7.256793)">
        
        
        
        <g
   transform="matrix(0.26549718,0,0,0.26549718,331.37474,80.150691)"
   id="g4"
   style="fill:#ffffff;fill-opacity:1;stroke:#000000;stroke-width:15;stroke-dasharray:none;stroke-opacity:1">
            <path
   d="m 0,240.343 -93.415,-68.811 c -0.88,-3.064 -1.756,-6.127 -2.662,-9.162 l 30.683,-44.451 c 3.13,-4.522 3.765,-10.398 1.731,-15.555 -2.037,-5.13 -6.491,-8.81 -11.763,-9.71 l -51.884,-8.805 c -2.008,-4.102 -4.116,-8.142 -6.23,-12.15 l 21.797,-49.903 c 2.243,-5.087 1.769,-10.995 -1.203,-15.608 -2.961,-4.636 -7.99,-7.344 -13.349,-7.133 l -52.656,1.913 c -2.727,-3.55 -5.496,-7.068 -8.321,-10.521 l 12.1,-53.49 c 1.225,-5.433 -0.322,-11.118 -4.103,-15.064 -3.762,-3.932 -9.229,-5.559 -14.426,-4.283 l -51.289,12.608 c -3.321,-2.935 -6.698,-5.833 -10.114,-8.673 l 1.848,-54.914 c 0.198,-5.559 -2.393,-10.842 -6.844,-13.925 -4.446,-3.104 -10.093,-3.573 -14.956,-1.266 l -47.847,22.747 c -3.854,-2.21 -7.728,-4.4 -11.644,-6.517 l -8.455,-54.115 c -0.857,-5.483 -4.385,-10.139 -9.326,-12.266 -4.923,-2.137 -10.568,-1.447 -14.891,1.808 l -42.659,32.007 c -4.2,-1.395 -8.419,-2.732 -12.692,-4.011 l -18.386,-51.316 c -1.87,-5.229 -6.181,-9.071 -11.438,-10.151 -5.239,-1.072 -10.63,0.742 -14.263,4.802 l -35.906,40.171 c -4.343,-0.5 -8.686,-0.956 -13.043,-1.331 l -27.724,-46.713 c -2.81,-4.732 -7.77,-7.612 -13.116,-7.612 -5.334,0 -10.304,2.88 -13.09,7.612 l -27.733,46.713 c -4.358,0.375 -8.722,0.831 -13.056,1.331 l -35.91,-40.171 c -3.636,-4.06 -9.047,-5.874 -14.268,-4.802 -5.255,1.092 -9.573,4.922 -11.433,10.151 l -18.402,51.316 c -4.26,1.279 -8.481,2.627 -12.691,4.011 l -42.644,-32.007 c -4.336,-3.266 -9.98,-3.955 -14.916,-1.808 -4.919,2.127 -8.461,6.783 -9.313,12.266 l -8.461,54.115 c -3.914,2.117 -7.789,4.294 -11.653,6.517 l -47.842,-22.747 c -4.858,-2.316 -10.529,-1.838 -14.954,1.266 -4.445,3.083 -7.042,8.366 -6.84,13.925 l 1.835,54.914 c -3.405,2.84 -6.774,5.738 -10.112,8.673 l -51.279,-12.608 c -5.21,-1.265 -10.67,0.351 -14.441,4.283 -3.795,3.946 -5.331,9.631 -4.113,15.064 l 12.079,53.49 c -2.802,3.467 -5.575,6.971 -8.293,10.521 l -52.655,-1.913 c -5.314,-0.157 -10.386,2.497 -13.356,7.133 -2.973,4.613 -3.423,10.521 -1.213,15.608 l 21.816,49.903 c -2.119,4.008 -4.224,8.048 -6.249,12.15 l -51.887,8.805 c -5.27,0.888 -9.71,4.566 -11.76,9.71 -2.04,5.157 -1.37,11.033 1.73,15.555 l 30.7,44.451 c -0.24,0.784 -0.46,1.577 -0.7,2.364 l -86.77,92.17 c 0,0 -13.29,10.423 6.07,34.916 17.07,21.605 104.724,107.252 151.018,152.123 19.554,22.779 32.948,36.886 34.349,35.666 2.208,-1.94 -9.387,-43.385 -47.902,-92.012 -29.685,-43.629 -68.215,-110.733 -59.175,-118.467 0,0 10.27,-13.045 30.893,-22.435 0.753,0.603 -0.781,-0.598 0,0 0,0 435.152,200.732 838.797,3.396 46.108,-8.273 74.023,16.43 74.023,16.43 9.628,5.58 -15.301,74.578 -35.798,120.254 -27.881,51.863 -31.97,92.332 -29.604,93.736 1.491,0.889 11.634,-14.545 26.104,-39.109 C -79.843,391.654 -12.354,296.816 0,273.782 14.006,247.663 0,240.343 0,240.343"
   style="fill:#ffffff;fill-opacity:1;fill-rule:nonzero;stroke:#000000;stroke-width:15;stroke-dasharray:none;stroke-opacity:1"
   id="path4" />
        </g>
        
        
        
        <g
   transform="matrix(0.26549718,0,0,0.26549718,205.56147,140.63015)"
   id="g8"
   style="stroke:none;stroke-width:15;stroke-dasharray:none">
            <path
   d="m 0,-92.063 c 0,0 43.486,-47.615 86.974,0 0,0 34.17,63.492 0,95.234 0,0 -55.912,44.444 -86.974,0 0,0 -37.275,-34.921 0,-95.234"
   style="fill-rule:nonzero;stroke:none;stroke-width:15;stroke-dasharray:none"
   id="path8" />
        </g>
        <g
   transform="matrix(0.26549718,0,0,0.26549718,218.92819,120.8769)"
   id="g9"
   style="fill:#ffffff;fill-opacity:1;stroke:none;stroke-width:15;stroke-dasharray:none">
            <path
   d="m 0,0.002 c 0,18.541 -10.93,33.572 -24.408,33.572 -13.477,0 -24.406,-15.031 -24.406,-33.572 0,-18.541 10.929,-33.574 24.406,-33.574 C -10.93,-33.572 0,-18.539 0,0.002"
   style="fill:#ffffff;fill-opacity:1;fill-rule:nonzero;stroke:none;stroke-width:15;stroke-dasharray:none;stroke-opacity:1"
   id="path9" />
        </g>
        <g
   transform="matrix(0.26549718,0,0,0.26549718,154.03058,138.87097)"
   id="g10"
   style="stroke:none;stroke-width:15;stroke-dasharray:none">
            <path
   d="m 0,-98.439 c 0,0 74.596,-33.028 94.956,40.691 0,0 21.327,85.926 -61.259,90.776 0,0 -105.31,-20.283 -33.697,-131.467"
   style="fill-rule:nonzero;stroke:none;stroke-width:15;stroke-dasharray:none"
   id="path10" />
        </g>
        <g
   transform="matrix(0.26549718,0,0,0.26549718,163.9777,121.20054)"
   id="g11"
   style="fill:#ffffff;fill-opacity:1;stroke:none;stroke-width:15;stroke-dasharray:none">
            <path
   d="m 0,0 c 0,19.119 -11.27,34.627 -25.173,34.627 -13.898,0 -25.171,-15.508 -25.171,-34.627 0,-19.124 11.273,-34.627 25.171,-34.627 C -11.27,-34.627 0,-19.124 0,0"
   style="fill:#ffffff;fill-opacity:1;fill-rule:nonzero;stroke:none;stroke-width:15;stroke-dasharray:none"
   id="path11" />
        </g>
        <g
   transform="matrix(0.26549718,0,0,0.26549718,142.90545,187.89529)"
   id="g12"
   style="display:inline;fill:#ffffff;fill-opacity:1;stroke:#000000;stroke-width:15;stroke-dasharray:none;stroke-opacity:1">
            <path
   d="M 0,-25.102 C 91.833,-36.676 144.904,-37.754 144.904,-37.754 22.037,-199.838 -77.661,-53.098 -77.661,-53.098 c -24.982,-8.932 -50.453,-43.613 -69.477,-75.59 l -76.237,-22.58 C -135.502,-2.127 -70.08,0.146 -70.08,0.146 66.134,174.736 130.663,34.441 130.663,34.441 54.195,25.759 0,-25.102 0,-25.102"
   style="fill:#ffffff;fill-opacity:1;fill-rule:nonzero;stroke:#000000;stroke-width:15;stroke-dasharray:none;stroke-opacity:1"
   id="path12" />
        <path
   style="fill:#ffffff;fill-opacity:1;stroke:none;stroke-width:14.9969;stroke-dasharray:none;stroke-opacity:1"
   d="m -230.87414,-165.32534 -4.6243,15.04754 c 0,0 3.67909,1.59358 5.75039,2.83255 13.53808,8.09793 94.02727,32.05983 102.06173,31.06069 13.17406,-1.63828 -6.94178,-31.24968 -6.94178,-31.24968 z"
   id="path3" /></g>
    <g
   id="g3"
   transform="matrix(1.0801816,0,0,1.0801816,174.3799,-8.9993341)"
   style="fill:#ffffff;fill-opacity:1;stroke:#000000;stroke-width:3.68684;stroke-dasharray:none;stroke-opacity:1">
	<g
   id="g2"
   transform="translate(-103.48643,-11.61871)"
   style="fill:#ffffff;fill-opacity:1;stroke:#000000;stroke-width:3.68684;stroke-dasharray:none;stroke-opacity:1">
		<path
   d="M 200.36877,76.441 V 65.290781 c 0,-22.992 -18.708,-36.779212 -41.702,-36.779212 H 71.236 c -22.994,0 -41.702,13.787212 -41.702,36.779212 V 76.441 c -11.496,0 -20.847,9.345 -20.847,20.83 v 34.78 c 0,11.486 9.351,20.83 20.847,20.83 h 17.373 c 1.919,0 3.475,-1.554 3.475,-3.475 V 79.915 c 0,-1.92 -1.556,-3.475 -3.475,-3.475 H 36.483 V 65.290781 c 0,-19.158 15.59,-29.830212 34.753,-29.830212 h 87.43177 c 19.163,0 34.753,10.672212 34.753,29.830212 V 76.441 h -10.425 c -1.919,0 -3.475,1.554 -3.475,3.475 v 69.492 c 0,1.92 1.556,3.475 3.475,3.475 h 7.027 c -0.203,2.639 -1.097,6.711 -4.37,10.61 -6.387,7.613 -19.391,11.703 -37.583,11.931 -0.85,-4.898 -5.101,-8.643 -10.236,-8.643 h -6.963 c -5.745,0 -10.417,4.676 -10.417,10.424 0,5.748 4.672,10.424 10.417,10.424 h 6.963 c 3.842,0 7.167,-2.116 8.973,-5.221 21.294,-0.046 36.16,-4.902 44.171,-14.449 4.636,-5.525 5.813,-11.321 6.018,-15.076 h 3.375 c 11.496,0 20.847,-9.345 20.847,-20.83 v -34.78 c -0.001,-11.487 -9.353,-20.832 -20.849,-20.832 z"
   id="path1"
   style="fill:#ffffff;fill-opacity:1;stroke:#000000;stroke-width:3.68684;stroke-dasharray:none;stroke-opacity:1" />
	</g>
</g><g
   transform="matrix(0.26549718,0,0,0.26549718,282.21102,220.65737)"
   id="g7"
   style="clip-rule:evenodd;display:inline;fill:#ffffff;fill-opacity:1;fill-rule:evenodd;stroke:#000000;stroke-width:15;stroke-linejoin:round;stroke-miterlimit:1.41421;stroke-dasharray:none;stroke-opacity:1">
            <path
   d="m -10,-278.014 c 0,0 3.786853,-11.25232 -25.19768,23.40802 -16.907622,20.2185 -41.563822,43.81005 -77.25532,67.82998 l -27.166,6.367 c 0,0 -87.881,-160.259 -212.383,20.334 0,0 38.802,-22.591 142.822,4.92 0,0 -47.85,73.239 -144.242,70.989 0,0 92.373,110.82 232.94,-49.252 0,0 116.2339967,-44.94871 151.436968,-140.52391 4.59994,-12.48873 -2.183677,10.15813 -0.790968,-4.07209 z"
   style="display:inline;fill:#ffffff;fill-opacity:1;fill-rule:nonzero;stroke:#000000;stroke-width:15;stroke-dasharray:none;stroke-opacity:1"
   id="path7" />
        <path
   style="clip-rule:evenodd;display:inline;fill:#ffffff;fill-opacity:1;fill-rule:evenodd;stroke:none;stroke-width:14.8248;stroke-linejoin:round;stroke-miterlimit:1.41421;stroke-dasharray:none;stroke-opacity:1"
   d="m 20.764864,-269.19017 -32.091121,6.46285 0.591414,-8.2615 20.4543607,-14.58666 23.1527823,-1.03653 c -10.193024,6.43153 -8.843133,12.70019 -12.107436,17.42184 z"
   id="path5" /></g></g>
</svg>
